<svg xmlns="http://www.w3.org/2000/svg" viewBox="0 0 97.98 43.04"><defs><style>.cls-1{fill:#17b3e0;}</style></defs><title>Asset 4</title><g id="Layer_2" data-name="Layer 2"><g id="Layer_1-2" data-name="Layer 1"><rect class="cls-1" y="6.15" width="6.15" height="30.74"/><rect class="cls-1" x="49.19" y="6.15" width="6.15" height="30.74"/><rect class="cls-1" x="12.3" width="6.15" height="18.45"/><rect class="cls-1" x="12.3" y="24.59" width="6.15" height="18.44"/><rect class="cls-1" x="36.89" width="6.15" height="18.45"/><rect class="cls-1" x="36.89" y="24.59" width="6.15" height="18.44"/><polygon class="cls-1" points="30.74 9.22 30.74 33.82 27.67 36.89 24.59 36.89 24.59 6.15 27.67 6.15 30.74 9.22"/><polygon class="cls-1" points="78.14 10.02 74.81 10.02 74.81 6.94 73.44 6.94 73.44 14.56 74.81 14.56 74.81 11.27 78.14 11.27 78.14 14.56 79.5 14.56 79.5 6.94 78.14 6.94 78.14 10.02"/><polygon class="cls-1" points="93.67 10.02 90.34 10.02 90.34 6.94 88.97 6.94 88.97 14.56 90.34 14.56 90.34 11.27 93.67 11.27 93.67 14.56 95.04 14.56 95.04 6.94 93.67 6.94 93.67 10.02"/><polygon class="cls-1" points="78.09 21.37 74.75 21.37 74.75 18.3 73.39 18.3 73.39 25.92 74.75 25.92 74.75 22.63 78.09 22.63 78.09 25.92 79.46 25.92 79.46 18.3 78.09 18.3 78.09 21.37"/><polygon class="cls-1" points="88.62 18.35 88.38 18.6 87.97 19 87.97 19.01 87.48 19.49 87.31 19.66 87.31 20.53 86.44 20.53 86.44 21.57 87.31 21.57 87.31 25.14 87.58 25.4 87.71 25.53 88.22 26.03 89.96 26.03 89.96 24.94 88.96 24.94 88.62 24.6 88.62 21.57 89.96 21.57 89.96 20.53 88.62 20.53 88.62 18.35"/><path class="cls-1" d="M82.14,20.42,80.67,21.9v2.66L82.14,26h2.45l1.48-1.47V21.9l-1.48-1.48ZM84.76,24l-.26.26-.46.46-.16.16h-1l-.14-.15h0L82,24V22.44l.73-.73h0l.12-.13h1l.15.15h0l.73.72Z"/><path class="cls-1" d="M92.09,20.42,90.61,21.9v2.66l1.09,1.09.39.38H95v-1.2H92.77L91.91,24v-.3h3.72V21.9l-1.48-1.48Zm2.31,2.2H91.91v-.23l.73-.74h0l.12-.14h.75l.87.87Z"/><polygon class="cls-1" points="96.67 18.3 96.67 24.63 96.67 26.03 97.94 26.03 97.98 26.03 97.98 18.3 96.67 18.3"/><path class="cls-1" d="M87,8.37l-.29-.29-.21-.22-.23-.22h0l-.69-.7H81.42v7.62h4.13l.69-.69.23-.23.21-.21.12-.12.17-.17.63-.64V9L87,8.37Zm-.75,3.68-.47.47v0a3,3,0,0,1-.25.25l-.53.52H82.79V8.2H85l.53.53a2.06,2.06,0,0,1,.26.25l.47.47Z"/><rect class="cls-1" x="84.52" y="30.25" width="0.5" height="0.56"/><rect class="cls-1" x="84.52" y="31.27" width="0.5" height="3.13"/><path class="cls-1" d="M92.22,31.72h0a.8.8,0,0,0-.13-.19l-.25-.25h-.91l-.22.21-.08.07-.17.16v-.44h0v-1H90v4.17h.49V32.17l.19-.19.27-.27h.63l.12.13.06.06.12.11v2.4h.5v-2A1.54,1.54,0,0,0,92.22,31.72Z"/><polygon class="cls-1" points="75.85 30.52 75.49 30.15 74.64 30.15 74.63 30.14 74.62 30.15 73.94 30.15 73.75 30.34 73.75 30.35 73.54 30.56 73.47 30.62 73.23 30.87 73.23 31.79 73.75 32.05 75.69 33.04 75.69 33.53 75.49 33.73 75.29 33.94 74.22 33.94 73.6 33.31 73.31 33.61 73.23 33.68 73.23 33.69 73.47 33.92 73.81 34.27 73.95 34.41 74.7 34.41 74.82 34.41 75.5 34.41 75.69 34.21 75.69 34.21 76.21 33.69 76.21 32.77 76.2 32.76 75.69 32.51 73.75 31.52 73.75 31.02 73.95 30.82 74.15 30.62 75.22 30.62 75.39 30.8 75.84 31.25 76.14 30.95 76.21 30.88 76.21 30.87 75.97 30.64 75.85 30.52"/><path class="cls-1" d="M81.27,31.27H79.92v.42h1.35l.15.14.12.13v.15l-1,.52-.31.16-.08,0-.37.19-.14.06h0v.83l.49.49h1L81.5,34l0,0v.46H82v-1h0V31.76l-.48-.49Zm.27,1.55v.7l-.47.47h-.69l-.19-.19-.07-.07v-.06h0v-.3h0l.71-.35.19-.1.51-.26Z"/><path class="cls-1" d="M88.56,31.27H87.21v.42h1.35l.14.14.13.13v.15l-1,.52-.31.16-.08,0L87,33l-.13.06h0v.83l.49.49h1l.42-.42,0,0v.46h.49v-1h0V31.76l-.49-.49Zm.27,1.55v.7l-.47.47h-.69l-.19-.19-.07-.07v-.06h0v-.3h0l.71-.35.19-.1.51-.26Z"/><polygon class="cls-1" points="78.75 31.34 78.21 32.88 77.97 33.55 77.85 33.89 77.79 33.68 77.6 32.97 77.18 31.34 77.16 31.27 76.63 31.27 76.65 31.34 77.14 33.19 77.44 34.37 77.45 34.41 77.67 34.41 77.54 34.75 77.29 35.47 77.29 35.47 77.83 35.47 78.08 34.78 78.08 34.78 78.21 34.41 78.3 34.16 78.59 33.34 78.68 33.08 79.19 31.66 79.3 31.34 79.33 31.27 78.78 31.27 78.75 31.34"/><path class="cls-1" d="M83.42,31.49l-.1.1-.16.15,0,0v-.45h-.47v3.09h.49V32.23l.2-.19.24-.24h.5v-.54h-.46Z"/><polygon class="cls-1" points="85.69 31.68 86.19 31.68 86.71 30.25 86.21 30.25 85.69 31.68"/></g></g></svg>