<?xml version="1.0" encoding="utf-8"?>
<!-- Generator: Adobe Illustrator 25.4.1, SVG Export Plug-In . SVG Version: 6.00 Build 0)  -->
<svg version="1.1" id="Layer_1" xmlns="http://www.w3.org/2000/svg" xmlns:xlink="http://www.w3.org/1999/xlink" x="0px" y="0px"
	 viewBox="0 0 1080 1080" style="enable-background:new 0 0 1080 1080;" xml:space="preserve">
<style type="text/css">
	.st0{fill:#FFFFFF;}
</style>
<g id="Layer_2_00000108283942606770407280000017941492728752155573_">
	<g id="Layer_1-2">
		<rect x="135.95" y="110.33" class="st0" width="89.43" height="447"/>
		<rect x="851.24" y="110.33" class="st0" width="89.43" height="447"/>
		<rect x="314.81" y="20.9" class="st0" width="89.43" height="268.29"/>
		<rect x="314.81" y="378.47" class="st0" width="89.43" height="268.14"/>
		<rect x="672.38" y="20.9" class="st0" width="89.43" height="268.29"/>
		<rect x="672.38" y="378.47" class="st0" width="89.43" height="268.14"/>
		<polygon class="st0" points="582.95,154.97 582.95,512.69 538.31,557.33 493.53,557.33 493.53,110.33 538.31,110.33 		"/>
	</g>
</g>
<g>
	<polygon class="st0" points="243.94,835.39 195.52,835.39 195.52,790.6 175.59,790.6 175.59,901.41 195.52,901.41 195.52,853.57 
		243.94,853.57 243.94,901.41 263.71,901.41 263.71,790.6 243.94,790.6 	"/>
	<polygon class="st0" points="469.77,835.39 421.34,835.39 421.34,790.6 401.42,790.6 401.42,901.41 421.34,901.41 421.34,853.57 
		469.77,853.57 469.77,901.41 489.69,901.41 489.69,790.6 469.77,790.6 	"/>
	<polygon class="st0" points="611.8,835.75 563.24,835.75 563.24,791.11 543.46,791.11 543.46,901.92 563.24,901.92 563.24,854.08 
		611.8,854.08 611.8,901.92 631.73,901.92 631.73,791.11 611.8,791.11 	"/>
	<polygon class="st0" points="764.92,791.84 761.43,795.47 755.47,801.29 755.47,801.44 748.35,808.42 745.87,810.89 745.87,823.54 
		733.22,823.54 733.22,838.66 745.87,838.66 745.87,890.57 749.8,894.36 751.69,896.25 759.11,903.52 784.41,903.52 784.41,887.67 
		769.87,887.67 764.92,882.72 764.92,838.66 784.41,838.66 784.41,823.54 764.92,823.54 	"/>
	<path class="st0" d="M670.7,821.94l-21.38,21.52v38.68l21.38,20.94h35.63l21.52-21.38v-38.24l-21.52-21.52H670.7z M708.79,874
		l-3.78,3.78l-6.69,6.69l-2.33,2.33h-14.54l-2.04-2.18l0,0L668.66,874v-22.68l10.62-10.62l0,0l1.74-1.89h14.54l2.18,2.18l0,0
		l10.62,10.47L708.79,874z"/>
	<path class="st0" d="M815.38,821.94l-21.52,21.52v38.68l15.85,15.85l5.67,5.53h42.32v-17.45h-32.43L812.77,874v-4.36h54.09v-26.17
		l-21.52-21.52H815.38z M848.97,853.93h-36.21v-3.34l10.62-10.76l0,0l1.74-2.04h10.91l12.65,12.65L848.97,853.93z"/>
	<polygon class="st0" points="881.98,791.11 881.98,883.16 881.98,903.52 900.45,903.52 901.03,903.52 901.03,791.11 	"/>
	<path class="st0" d="M372.77,811.4l-4.22-4.22l-3.05-3.2l-3.34-3.2l0,0l-10.03-10.18h-60.49v110.8h60.06l10.03-10.03l3.34-3.34
		l3.05-3.05l1.74-1.74l2.47-2.47l9.16-9.31v-50.89L372.77,811.4z M361.87,864.91l-6.83,6.83l0,0c-1.14,1.28-2.35,2.5-3.64,3.64
		l-7.71,7.56h-32.14v-74.02h32.14l7.71,7.71c1.36,1.1,2.63,2.32,3.78,3.64l6.83,6.83L361.87,864.91z"/>
</g>
<g>
	<rect x="563.25" y="983.19" class="st0" width="7.27" height="8.14"/>
	<rect x="563.25" y="998.02" class="st0" width="7.27" height="45.51"/>
	<path class="st0" d="M675.22,1004.57L675.22,1004.57c-0.49-1.01-1.13-1.94-1.89-2.76l-3.64-3.64h-13.23l-3.2,3.05l-1.16,1.02
		l-2.47,2.33v-6.4l0,0v-14.54h-6.69v60.64h7.13v-33.15l2.76-2.76l3.93-3.93h9.16l1.74,1.89l0.87,0.87l1.74,1.6v34.9h7.27v-29.08
		C677.56,1011.12,676.76,1007.69,675.22,1004.57z"/>
	<polygon class="st0" points="437.18,987.12 431.94,981.74 419.58,981.74 419.44,981.59 419.29,981.74 409.4,981.74 406.64,984.5 
		406.64,984.65 403.59,987.7 402.57,988.57 399.08,992.21 399.08,1005.59 406.64,1009.37 434.85,1023.76 434.85,1030.89 
		431.94,1033.8 429.03,1036.85 413.48,1036.85 404.46,1027.69 400.24,1032.05 399.08,1033.07 399.08,1033.21 402.57,1036.56 
		407.51,1041.65 409.55,1043.68 420.45,1043.68 422.2,1043.68 432.09,1043.68 434.85,1040.78 434.85,1040.78 442.41,1033.21 
		442.41,1019.84 442.27,1019.69 434.85,1016.06 406.64,1001.66 406.64,994.39 409.55,991.48 412.46,988.57 428.02,988.57 
		430.49,991.19 437.03,997.73 441.39,993.37 442.41,992.35 442.41,992.21 438.92,988.86 	"/>
	<path class="st0" d="M515.99,998.02h-19.63v6.11h19.63l2.18,2.04l1.74,1.89v2.18l-14.54,7.56l-4.51,2.33h-1.16l-5.38,2.76
		l-2.04,0.87l0,0v12.07l7.13,7.13h14.54l5.38-5.23l0,0v6.69h7.27v-14.54l0,0v-24.72l-6.98-7.13H515.99z M519.92,1020.56v10.18
		l-6.83,6.83h-10.03l-2.76-2.76l-1.02-1.02v-0.87l0,0v-4.36l0,0l10.32-5.09l2.76-1.45l7.42-3.78L519.92,1020.56z"/>
	<path class="st0" d="M622,998.02h-19.63v6.11H622l2.04,2.04l1.89,1.89v2.18l-14.54,7.56l-4.51,2.33h-1.16l-6.4,3.05l-1.89,0.87l0,0
		v12.07l7.13,7.13h14.54l6.11-6.11l0,0v6.69h7.13v-14.54l0,0v-24.14l-7.13-7.13H622z M625.92,1020.56v10.18l-6.83,6.83h-10.03
		l-2.76-2.76l-1.02-1.02v-0.87l0,0v-4.36l0,0l10.32-5.09l2.76-1.45l7.42-3.78L625.92,1020.56z"/>
	<polygon class="st0" points="479.35,999.04 471.5,1021.44 468.01,1031.18 466.26,1036.12 465.39,1033.07 462.62,1022.75 
		456.52,999.04 456.23,998.02 448.52,998.02 448.81,999.04 455.94,1025.94 460.3,1043.1 460.44,1043.68 463.64,1043.68 
		461.75,1048.63 458.12,1059.1 458.12,1059.1 465.97,1059.1 469.6,1049.07 469.6,1049.07 471.5,1043.68 472.8,1040.05 
		477.02,1028.13 478.33,1024.34 485.75,1003.7 487.35,999.04 487.78,998.02 479.78,998.02 	"/>
	<path class="st0" d="M547.26,1001.22l-1.45,1.45l-2.33,2.18l0,0v-6.54h-6.83v44.93h7.13v-31.26l2.91-2.76l3.49-3.49h7.27v-7.85
		h-6.69L547.26,1001.22z"/>
	<polygon class="st0" points="580.26,1003.99 587.54,1003.99 595.1,983.19 587.83,983.19 	"/>
</g>
</svg>
